{
	"patcher" : 	{
		"fileversion" : 1,
		"rect" : [ 45.0, 44.0, 953.0, 726.0 ],
		"bglocked" : 0,
		"defrect" : [ 45.0, 44.0, 953.0, 726.0 ],
		"openrect" : [ 0.0, 0.0, 0.0, 0.0 ],
		"openinpresentation" : 0,
		"default_fontsize" : 12.0,
		"default_fontface" : 0,
		"default_fontname" : "Andale Mono",
		"gridonopen" : 0,
		"gridsize" : [ 16.0, 16.0 ],
		"gridsnaponopen" : 0,
		"toolbarvisible" : 1,
		"boxanimatetime" : 200,
		"imprint" : 0,
		"enablehscroll" : 1,
		"enablevscroll" : 1,
		"devicewidth" : 0.0,
		"boxes" : [ 			{
				"box" : 				{
					"maxclass" : "comment",
					"text" : "level/led",
					"patching_rect" : [ 704.0, 16.0, 140.0, 33.0 ],
					"fontsize" : 24.0,
					"id" : "obj-17",
					"numinlets" : 1,
					"numoutlets" : 0,
					"fontname" : "Andale Mono"
				}

			}
, 			{
				"box" : 				{
					"maxclass" : "comment",
					"text" : "led",
					"patching_rect" : [ 368.0, 16.0, 83.0, 33.0 ],
					"fontsize" : 24.0,
					"id" : "obj-16",
					"numinlets" : 1,
					"numoutlets" : 0,
					"fontname" : "Andale Mono",
					"presentation_rect" : [ 412.0, 16.0, 0.0, 0.0 ]
				}

			}
, 			{
				"box" : 				{
					"maxclass" : "comment",
					"text" : "input",
					"patching_rect" : [ 32.0, 16.0, 83.0, 33.0 ],
					"fontsize" : 24.0,
					"id" : "obj-15",
					"numinlets" : 1,
					"numoutlets" : 0,
					"fontname" : "Andale Mono"
				}

			}
, 			{
				"box" : 				{
					"maxclass" : "comment",
					"text" : "< select",
					"patching_rect" : [ 256.0, 128.0, 68.0, 20.0 ],
					"fontsize" : 12.0,
					"id" : "obj-11",
					"numinlets" : 1,
					"numoutlets" : 0,
					"fontname" : "Andale Mono"
				}

			}
, 			{
				"box" : 				{
					"maxclass" : "message",
					"text" : "22 0 0 255",
					"patching_rect" : [ 368.0, 592.0, 83.0, 18.0 ],
					"fontsize" : 12.0,
					"id" : "obj-7",
					"numinlets" : 2,
					"numoutlets" : 1,
					"outlettype" : [ "" ],
					"fontname" : "Andale Mono",
					"presentation_rect" : [ 448.0, 636.0, 0.0, 0.0 ]
				}

			}
, 			{
				"box" : 				{
					"maxclass" : "number",
					"patching_rect" : [ 705.0, 65.0, 50.0, 20.0 ],
					"minimum" : 0,
					"fontsize" : 12.0,
					"id" : "obj-5",
					"numinlets" : 1,
					"maximum" : 15,
					"numoutlets" : 2,
					"outlettype" : [ "int", "bang" ],
					"fontname" : "Andale Mono",
					"presentation_rect" : [ 226.0, 275.0, 0.0, 0.0 ]
				}

			}
, 			{
				"box" : 				{
					"maxclass" : "message",
					"text" : "24 0 0 $1",
					"patching_rect" : [ 768.0, 64.0, 75.0, 18.0 ],
					"fontsize" : 12.0,
					"id" : "obj-6",
					"numinlets" : 2,
					"numoutlets" : 1,
					"outlettype" : [ "" ],
					"fontname" : "Andale Mono",
					"presentation_rect" : [ 225.0, 306.0, 0.0, 0.0 ]
				}

			}
, 			{
				"box" : 				{
					"maxclass" : "number",
					"patching_rect" : [ 704.0, 96.0, 50.0, 20.0 ],
					"minimum" : 0,
					"fontsize" : 12.0,
					"id" : "obj-2",
					"numinlets" : 1,
					"maximum" : 15,
					"numoutlets" : 2,
					"outlettype" : [ "int", "bang" ],
					"fontname" : "Andale Mono",
					"presentation_rect" : [ 157.0, 270.0, 0.0, 0.0 ]
				}

			}
, 			{
				"box" : 				{
					"maxclass" : "message",
					"text" : "25 $1",
					"patching_rect" : [ 768.0, 96.0, 47.0, 18.0 ],
					"fontsize" : 12.0,
					"id" : "obj-3",
					"numinlets" : 2,
					"numoutlets" : 1,
					"outlettype" : [ "" ],
					"fontname" : "Andale Mono",
					"presentation_rect" : [ 156.0, 301.0, 0.0, 0.0 ]
				}

			}
, 			{
				"box" : 				{
					"maxclass" : "newobj",
					"text" : "s to_serial",
					"patching_rect" : [ 704.0, 256.0, 90.0, 20.0 ],
					"fontsize" : 12.0,
					"id" : "obj-1",
					"numinlets" : 1,
					"numoutlets" : 0,
					"fontname" : "Andale Mono",
					"presentation_rect" : [ 30.0, 494.0, 0.0, 0.0 ]
				}

			}
, 			{
				"box" : 				{
					"maxclass" : "message",
					"text" : "27 0 0 200 12 12 12",
					"patching_rect" : [ 704.0, 192.0, 147.0, 18.0 ],
					"fontsize" : 12.0,
					"id" : "obj-145",
					"numinlets" : 2,
					"numoutlets" : 1,
					"outlettype" : [ "" ],
					"fontname" : "Andale Mono"
				}

			}
, 			{
				"box" : 				{
					"maxclass" : "message",
					"text" : "28 0 0 112 8 4 192",
					"patching_rect" : [ 704.0, 224.0, 140.0, 18.0 ],
					"fontsize" : 12.0,
					"id" : "obj-123",
					"numinlets" : 2,
					"numoutlets" : 1,
					"outlettype" : [ "" ],
					"fontname" : "Andale Mono"
				}

			}
, 			{
				"box" : 				{
					"maxclass" : "message",
					"text" : "32 12 9",
					"patching_rect" : [ 32.0, 352.0, 90.0, 18.0 ],
					"fontsize" : 12.0,
					"id" : "obj-120",
					"numinlets" : 2,
					"numoutlets" : 1,
					"outlettype" : [ "" ],
					"fontname" : "Andale Mono"
				}

			}
, 			{
				"box" : 				{
					"maxclass" : "message",
					"text" : "26 0 0 255 200 0 0 0 255 0 0 0 0 255 0 0 0 0 255 0 0 0 0 0 0 0 0 0 0 0 0 0 0 8 0",
					"linecount" : 3,
					"patching_rect" : [ 704.0, 128.0, 210.0, 45.0 ],
					"fontsize" : 12.0,
					"id" : "obj-95",
					"numinlets" : 2,
					"numoutlets" : 1,
					"outlettype" : [ "" ],
					"fontname" : "Andale Mono"
				}

			}
, 			{
				"box" : 				{
					"maxclass" : "message",
					"text" : "$1 $2 0",
					"patching_rect" : [ 32.0, 416.0, 61.0, 18.0 ],
					"fontsize" : 12.0,
					"id" : "obj-73",
					"numinlets" : 2,
					"numoutlets" : 1,
					"outlettype" : [ "" ],
					"fontname" : "Andale Mono"
				}

			}
, 			{
				"box" : 				{
					"maxclass" : "message",
					"text" : "$1 $2 1",
					"patching_rect" : [ 96.0, 416.0, 61.0, 18.0 ],
					"fontsize" : 12.0,
					"id" : "obj-52",
					"numinlets" : 2,
					"numoutlets" : 1,
					"outlettype" : [ "" ],
					"fontname" : "Andale Mono"
				}

			}
, 			{
				"box" : 				{
					"maxclass" : "newobj",
					"text" : "route 32 33",
					"patching_rect" : [ 32.0, 384.0, 90.0, 20.0 ],
					"fontsize" : 12.0,
					"id" : "obj-49",
					"numinlets" : 1,
					"numoutlets" : 3,
					"outlettype" : [ "", "", "" ],
					"fontname" : "Andale Mono"
				}

			}
, 			{
				"box" : 				{
					"maxclass" : "number",
					"patching_rect" : [ 368.0, 624.0, 50.0, 20.0 ],
					"minimum" : 0,
					"fontsize" : 12.0,
					"id" : "obj-41",
					"numinlets" : 1,
					"maximum" : 15,
					"numoutlets" : 2,
					"outlettype" : [ "int", "bang" ],
					"fontname" : "Andale Mono"
				}

			}
, 			{
				"box" : 				{
					"maxclass" : "message",
					"text" : "23 $1",
					"patching_rect" : [ 432.0, 624.0, 47.0, 18.0 ],
					"fontsize" : 12.0,
					"id" : "obj-59",
					"numinlets" : 2,
					"numoutlets" : 1,
					"outlettype" : [ "" ],
					"fontname" : "Andale Mono"
				}

			}
, 			{
				"box" : 				{
					"maxclass" : "message",
					"text" : "21 0 0 255",
					"patching_rect" : [ 368.0, 560.0, 83.0, 18.0 ],
					"fontsize" : 12.0,
					"id" : "obj-47",
					"numinlets" : 2,
					"numoutlets" : 1,
					"outlettype" : [ "" ],
					"fontname" : "Andale Mono"
				}

			}
, 			{
				"box" : 				{
					"maxclass" : "message",
					"text" : "20 0 0 1 2 3 4 5 6 7 8",
					"patching_rect" : [ 368.0, 528.0, 169.0, 18.0 ],
					"fontsize" : 12.0,
					"id" : "obj-39",
					"numinlets" : 2,
					"numoutlets" : 1,
					"outlettype" : [ "" ],
					"fontname" : "Andale Mono"
				}

			}
, 			{
				"box" : 				{
					"maxclass" : "message",
					"text" : "19",
					"patching_rect" : [ 432.0, 496.0, 32.5, 18.0 ],
					"fontsize" : 12.0,
					"id" : "obj-37",
					"numinlets" : 2,
					"numoutlets" : 1,
					"outlettype" : [ "" ],
					"fontname" : "Andale Mono"
				}

			}
, 			{
				"box" : 				{
					"maxclass" : "message",
					"text" : "18",
					"patching_rect" : [ 368.0, 496.0, 32.5, 18.0 ],
					"fontsize" : 12.0,
					"id" : "obj-35",
					"numinlets" : 2,
					"numoutlets" : 1,
					"outlettype" : [ "" ],
					"fontname" : "Andale Mono"
				}

			}
, 			{
				"box" : 				{
					"maxclass" : "message",
					"text" : "clear",
					"patching_rect" : [ 368.0, 64.0, 47.0, 18.0 ],
					"fontsize" : 12.0,
					"id" : "obj-33",
					"numinlets" : 2,
					"numoutlets" : 1,
					"outlettype" : [ "" ],
					"fontname" : "Andale Mono"
				}

			}
, 			{
				"box" : 				{
					"maxclass" : "message",
					"text" : "$3 $1 $2",
					"patching_rect" : [ 368.0, 432.0, 68.0, 18.0 ],
					"fontsize" : 12.0,
					"id" : "obj-29",
					"numinlets" : 2,
					"numoutlets" : 1,
					"outlettype" : [ "" ],
					"fontname" : "Andale Mono",
					"hidden" : 1
				}

			}
, 			{
				"box" : 				{
					"maxclass" : "newobj",
					"text" : "pack 0 0 0",
					"patching_rect" : [ 368.0, 400.0, 83.0, 20.0 ],
					"fontsize" : 12.0,
					"id" : "obj-27",
					"numinlets" : 3,
					"numoutlets" : 1,
					"outlettype" : [ "" ],
					"fontname" : "Andale Mono",
					"hidden" : 1
				}

			}
, 			{
				"box" : 				{
					"maxclass" : "newobj",
					"text" : "+ 16",
					"patching_rect" : [ 480.0, 368.0, 39.0, 20.0 ],
					"fontsize" : 12.0,
					"id" : "obj-26",
					"numinlets" : 2,
					"numoutlets" : 1,
					"outlettype" : [ "int" ],
					"fontname" : "Andale Mono",
					"hidden" : 1
				}

			}
, 			{
				"box" : 				{
					"maxclass" : "newobj",
					"text" : "unpack 0 0 0",
					"patching_rect" : [ 368.0, 368.0, 97.0, 20.0 ],
					"fontsize" : 12.0,
					"id" : "obj-22",
					"numinlets" : 1,
					"numoutlets" : 3,
					"outlettype" : [ "int", "int", "int" ],
					"fontname" : "Andale Mono",
					"hidden" : 1
				}

			}
, 			{
				"box" : 				{
					"maxclass" : "matrixctrl",
					"rows" : 16,
					"patching_rect" : [ 368.0, 96.0, 258.0, 258.0 ],
					"autosize" : 1,
					"id" : "obj-8",
					"numinlets" : 1,
					"numoutlets" : 2,
					"columns" : 16,
					"outlettype" : [ "list", "list" ],
					"presentation_rect" : [ 32.0, 224.0, 258.0, 258.0 ]
				}

			}
, 			{
				"box" : 				{
					"maxclass" : "message",
					"text" : "17 0 0",
					"patching_rect" : [ 432.0, 464.0, 54.0, 18.0 ],
					"fontsize" : 12.0,
					"id" : "obj-18",
					"numinlets" : 2,
					"numoutlets" : 1,
					"outlettype" : [ "" ],
					"fontname" : "Andale Mono"
				}

			}
, 			{
				"box" : 				{
					"maxclass" : "message",
					"text" : "16 0 0",
					"patching_rect" : [ 367.0, 463.0, 54.0, 18.0 ],
					"fontsize" : 12.0,
					"id" : "obj-10",
					"numinlets" : 2,
					"numoutlets" : 1,
					"outlettype" : [ "" ],
					"fontname" : "Andale Mono"
				}

			}
, 			{
				"box" : 				{
					"maxclass" : "matrixctrl",
					"rows" : 16,
					"patching_rect" : [ 32.0, 448.0, 258.0, 258.0 ],
					"autosize" : 1,
					"id" : "obj-55",
					"numinlets" : 1,
					"numoutlets" : 2,
					"columns" : 16,
					"outlettype" : [ "list", "list" ],
					"presentation_rect" : [ 15.0, 15.0, 258.0, 258.0 ]
				}

			}
, 			{
				"box" : 				{
					"maxclass" : "newobj",
					"text" : "s to_serial",
					"patching_rect" : [ 368.0, 656.0, 90.0, 20.0 ],
					"fontsize" : 12.0,
					"id" : "obj-4",
					"numinlets" : 1,
					"numoutlets" : 0,
					"fontname" : "Andale Mono"
				}

			}
, 			{
				"box" : 				{
					"maxclass" : "newobj",
					"text" : "p serial_guts",
					"patching_rect" : [ 32.0, 68.0, 102.0, 20.0 ],
					"fontsize" : 12.0,
					"id" : "obj-98",
					"numinlets" : 0,
					"color" : [ 1.0, 0.360784, 0.682353, 1.0 ],
					"numoutlets" : 0,
					"fontname" : "Andale Mono",
					"hidden" : 1,
					"patcher" : 					{
						"fileversion" : 1,
						"rect" : [ 444.0, 343.0, 343.0, 452.0 ],
						"bglocked" : 0,
						"defrect" : [ 444.0, 343.0, 343.0, 452.0 ],
						"openrect" : [ 0.0, 0.0, 0.0, 0.0 ],
						"openinpresentation" : 0,
						"default_fontsize" : 12.0,
						"default_fontface" : 0,
						"default_fontname" : "Andale Mono",
						"gridonopen" : 0,
						"gridsize" : [ 16.0, 16.0 ],
						"gridsnaponopen" : 0,
						"toolbarvisible" : 1,
						"boxanimatetime" : 200,
						"imprint" : 0,
						"enablehscroll" : 1,
						"enablevscroll" : 1,
						"devicewidth" : 0.0,
						"boxes" : [ 							{
								"box" : 								{
									"maxclass" : "message",
									"text" : "baud 115200, chunk 3",
									"patching_rect" : [ 200.0, 314.0, 119.0, 15.0 ],
									"fontsize" : 9.0,
									"id" : "obj-1",
									"numinlets" : 2,
									"numoutlets" : 1,
									"outlettype" : [ "" ],
									"fontname" : "Andale Mono"
								}

							}
, 							{
								"box" : 								{
									"maxclass" : "newobj",
									"text" : "r refresh_serial",
									"patching_rect" : [ 151.0, 83.0, 97.0, 17.0 ],
									"fontsize" : 9.0,
									"id" : "obj-2",
									"numinlets" : 0,
									"numoutlets" : 1,
									"outlettype" : [ "" ],
									"fontname" : "Andale Mono"
								}

							}
, 							{
								"box" : 								{
									"maxclass" : "newobj",
									"text" : "s to_serial_select",
									"patching_rect" : [ 94.0, 198.0, 108.0, 17.0 ],
									"fontsize" : 9.0,
									"id" : "obj-3",
									"numinlets" : 1,
									"numoutlets" : 0,
									"fontname" : "Andale Mono"
								}

							}
, 							{
								"box" : 								{
									"maxclass" : "newobj",
									"text" : "r from_serial_select",
									"patching_rect" : [ 69.0, 253.0, 119.0, 17.0 ],
									"fontsize" : 9.0,
									"id" : "obj-4",
									"numinlets" : 0,
									"numoutlets" : 1,
									"outlettype" : [ "" ],
									"fontname" : "Andale Mono"
								}

							}
, 							{
								"box" : 								{
									"maxclass" : "newobj",
									"text" : "r from_serial",
									"patching_rect" : [ 41.0, 48.0, 81.0, 17.0 ],
									"fontsize" : 9.0,
									"id" : "obj-5",
									"numinlets" : 0,
									"numoutlets" : 1,
									"outlettype" : [ "" ],
									"fontname" : "Andale Mono"
								}

							}
, 							{
								"box" : 								{
									"maxclass" : "newobj",
									"text" : "s to_serial",
									"patching_rect" : [ 185.0, 350.0, 70.0, 17.0 ],
									"fontsize" : 9.0,
									"id" : "obj-6",
									"numinlets" : 1,
									"numoutlets" : 0,
									"fontname" : "Andale Mono"
								}

							}
, 							{
								"box" : 								{
									"maxclass" : "newobj",
									"text" : "t b s",
									"patching_rect" : [ 158.0, 283.0, 38.0, 17.0 ],
									"fontsize" : 9.0,
									"id" : "obj-8",
									"numinlets" : 1,
									"numoutlets" : 2,
									"outlettype" : [ "bang", "" ],
									"fontname" : "Andale Mono"
								}

							}
, 							{
								"box" : 								{
									"maxclass" : "newobj",
									"text" : "prepend append",
									"patching_rect" : [ 41.0, 129.0, 86.0, 17.0 ],
									"fontsize" : 9.0,
									"id" : "obj-9",
									"numinlets" : 1,
									"numoutlets" : 1,
									"outlettype" : [ "" ],
									"fontname" : "Andale Mono"
								}

							}
, 							{
								"box" : 								{
									"maxclass" : "newobj",
									"text" : "prepend port",
									"patching_rect" : [ 41.0, 109.0, 75.0, 17.0 ],
									"fontsize" : 9.0,
									"id" : "obj-10",
									"numinlets" : 1,
									"numoutlets" : 1,
									"outlettype" : [ "" ],
									"fontname" : "Andale Mono"
								}

							}
, 							{
								"box" : 								{
									"maxclass" : "newobj",
									"text" : "route port",
									"patching_rect" : [ 41.0, 68.0, 65.0, 17.0 ],
									"fontsize" : 9.0,
									"id" : "obj-11",
									"numinlets" : 1,
									"numoutlets" : 2,
									"outlettype" : [ "", "" ],
									"fontname" : "Andale Mono"
								}

							}
, 							{
								"box" : 								{
									"maxclass" : "newobj",
									"text" : "pipe 250",
									"patching_rect" : [ 210.0, 125.0, 54.0, 17.0 ],
									"fontsize" : 9.0,
									"id" : "obj-12",
									"numinlets" : 2,
									"numoutlets" : 1,
									"outlettype" : [ "" ],
									"fontname" : "Andale Mono"
								}

							}
, 							{
								"box" : 								{
									"maxclass" : "newobj",
									"text" : "loadmess 1",
									"patching_rect" : [ 210.0, 104.0, 65.0, 17.0 ],
									"fontsize" : 9.0,
									"id" : "obj-13",
									"numinlets" : 1,
									"numoutlets" : 1,
									"outlettype" : [ "" ],
									"fontname" : "Andale Mono"
								}

							}
, 							{
								"box" : 								{
									"maxclass" : "newobj",
									"text" : "t print clear",
									"patching_rect" : [ 196.0, 155.0, 81.0, 17.0 ],
									"fontsize" : 9.0,
									"id" : "obj-14",
									"numinlets" : 1,
									"numoutlets" : 2,
									"outlettype" : [ "print", "clear" ],
									"fontname" : "Andale Mono"
								}

							}
, 							{
								"box" : 								{
									"maxclass" : "newobj",
									"text" : "zl iter 1",
									"patching_rect" : [ 41.0, 89.0, 59.0, 17.0 ],
									"fontsize" : 9.0,
									"id" : "obj-15",
									"numinlets" : 2,
									"numoutlets" : 2,
									"outlettype" : [ "", "" ],
									"fontname" : "Andale Mono"
								}

							}
 ],
						"lines" : [ 							{
								"patchline" : 								{
									"source" : [ "obj-13", 0 ],
									"destination" : [ "obj-12", 0 ],
									"hidden" : 0,
									"midpoints" : [  ]
								}

							}
, 							{
								"patchline" : 								{
									"source" : [ "obj-8", 0 ],
									"destination" : [ "obj-1", 0 ],
									"hidden" : 0,
									"midpoints" : [  ]
								}

							}
, 							{
								"patchline" : 								{
									"source" : [ "obj-2", 0 ],
									"destination" : [ "obj-14", 0 ],
									"hidden" : 0,
									"midpoints" : [  ]
								}

							}
, 							{
								"patchline" : 								{
									"source" : [ "obj-12", 0 ],
									"destination" : [ "obj-14", 0 ],
									"hidden" : 0,
									"midpoints" : [  ]
								}

							}
, 							{
								"patchline" : 								{
									"source" : [ "obj-8", 1 ],
									"destination" : [ "obj-6", 0 ],
									"hidden" : 0,
									"midpoints" : [  ]
								}

							}
, 							{
								"patchline" : 								{
									"source" : [ "obj-14", 0 ],
									"destination" : [ "obj-6", 0 ],
									"hidden" : 0,
									"midpoints" : [  ]
								}

							}
, 							{
								"patchline" : 								{
									"source" : [ "obj-4", 0 ],
									"destination" : [ "obj-8", 0 ],
									"hidden" : 0,
									"midpoints" : [  ]
								}

							}
, 							{
								"patchline" : 								{
									"source" : [ "obj-9", 0 ],
									"destination" : [ "obj-3", 0 ],
									"hidden" : 0,
									"midpoints" : [  ]
								}

							}
, 							{
								"patchline" : 								{
									"source" : [ "obj-14", 1 ],
									"destination" : [ "obj-3", 0 ],
									"hidden" : 0,
									"midpoints" : [  ]
								}

							}
, 							{
								"patchline" : 								{
									"source" : [ "obj-10", 0 ],
									"destination" : [ "obj-9", 0 ],
									"hidden" : 0,
									"midpoints" : [  ]
								}

							}
, 							{
								"patchline" : 								{
									"source" : [ "obj-15", 0 ],
									"destination" : [ "obj-10", 0 ],
									"hidden" : 0,
									"midpoints" : [  ]
								}

							}
, 							{
								"patchline" : 								{
									"source" : [ "obj-11", 0 ],
									"destination" : [ "obj-15", 0 ],
									"hidden" : 0,
									"midpoints" : [  ]
								}

							}
, 							{
								"patchline" : 								{
									"source" : [ "obj-5", 0 ],
									"destination" : [ "obj-11", 0 ],
									"hidden" : 0,
									"midpoints" : [  ]
								}

							}
, 							{
								"patchline" : 								{
									"source" : [ "obj-1", 0 ],
									"destination" : [ "obj-6", 0 ],
									"hidden" : 0,
									"midpoints" : [  ]
								}

							}
 ]
					}
,
					"saved_object_attributes" : 					{
						"fontface" : 0,
						"fontsize" : 12.0,
						"default_fontface" : 0,
						"globalpatchername" : "",
						"default_fontname" : "Andale Mono",
						"fontname" : "Andale Mono",
						"default_fontsize" : 12.0
					}

				}

			}
, 			{
				"box" : 				{
					"maxclass" : "message",
					"text" : "refresh serial port list",
					"patching_rect" : [ 32.0, 160.0, 181.0, 18.0 ],
					"fontsize" : 12.0,
					"presentation" : 1,
					"id" : "obj-99",
					"numinlets" : 2,
					"numoutlets" : 1,
					"outlettype" : [ "" ],
					"fontname" : "Andale Mono",
					"presentation_rect" : [ 46.0, 254.0, 181.0, 18.0 ]
				}

			}
, 			{
				"box" : 				{
					"maxclass" : "button",
					"patching_rect" : [ 32.0, 192.0, 15.0, 15.0 ],
					"id" : "obj-100",
					"numinlets" : 1,
					"numoutlets" : 1,
					"outlettype" : [ "bang" ],
					"hidden" : 1
				}

			}
, 			{
				"box" : 				{
					"maxclass" : "newobj",
					"text" : "s refresh_serial",
					"patching_rect" : [ 48.0, 192.0, 124.0, 20.0 ],
					"fontsize" : 12.0,
					"id" : "obj-101",
					"numinlets" : 1,
					"numoutlets" : 0,
					"fontname" : "Andale Mono",
					"hidden" : 1
				}

			}
, 			{
				"box" : 				{
					"maxclass" : "newobj",
					"text" : "r to_serial_select",
					"patching_rect" : [ 32.0, 96.0, 138.0, 20.0 ],
					"fontsize" : 12.0,
					"id" : "obj-102",
					"numinlets" : 0,
					"numoutlets" : 1,
					"outlettype" : [ "" ],
					"fontname" : "Andale Mono",
					"hidden" : 1
				}

			}
, 			{
				"box" : 				{
					"maxclass" : "newobj",
					"text" : "s from_serial_select",
					"patching_rect" : [ 176.0, 192.0, 153.0, 20.0 ],
					"fontsize" : 12.0,
					"id" : "obj-103",
					"numinlets" : 1,
					"numoutlets" : 0,
					"fontname" : "Andale Mono",
					"hidden" : 1
				}

			}
, 			{
				"box" : 				{
					"maxclass" : "umenu",
					"hltcolor" : [ 0.32549, 0.32549, 0.32549, 1.0 ],
					"patching_rect" : [ 32.0, 128.0, 209.0, 21.0 ],
					"fontsize" : 12.0,
					"presentation" : 1,
					"id" : "obj-104",
					"numinlets" : 1,
					"bgcolor" : [ 0.32549, 0.32549, 0.32549, 1.0 ],
					"types" : [  ],
					"framecolor" : [ 0.015686, 0.015686, 0.015686, 1.0 ],
					"numoutlets" : 3,
					"discolor" : [ 0.439216, 0.439216, 0.439216, 1.0 ],
					"textcolor" : [ 1.0, 1.0, 1.0, 1.0 ],
					"togcolor" : [ 0.552941, 0.552941, 0.552941, 1.0 ],
					"outlettype" : [ "int", "", "" ],
					"bgcolor2" : [ 0.0, 0.0, 0.0, 1.0 ],
					"fontname" : "Verdana",
					"presentation_rect" : [ 46.0, 222.0, 166.0, 21.0 ],
					"items" : [ "port", "usbserial-m0000000", ",", "port", "Bluetooth-Modem", ",", "port", "Bluetooth-PDA-Sync" ],
					"textcolor2" : [ 1.0, 1.0, 1.0, 1.0 ]
				}

			}
, 			{
				"box" : 				{
					"maxclass" : "newobj",
					"text" : "loadmess 1",
					"patching_rect" : [ 32.0, 224.0, 81.0, 20.0 ],
					"fontsize" : 12.0,
					"id" : "obj-105",
					"numinlets" : 1,
					"numoutlets" : 1,
					"outlettype" : [ "" ],
					"fontname" : "Andale Mono",
					"hidden" : 1
				}

			}
, 			{
				"box" : 				{
					"maxclass" : "newobj",
					"text" : "pipe 25",
					"patching_rect" : [ 32.0, 256.0, 59.0, 20.0 ],
					"fontsize" : 12.0,
					"id" : "obj-106",
					"numinlets" : 2,
					"numoutlets" : 1,
					"outlettype" : [ "" ],
					"fontname" : "Andale Mono",
					"hidden" : 1
				}

			}
, 			{
				"box" : 				{
					"maxclass" : "toggle",
					"patching_rect" : [ 96.0, 256.0, 19.0, 19.0 ],
					"id" : "obj-107",
					"numinlets" : 1,
					"numoutlets" : 1,
					"outlettype" : [ "int" ],
					"hidden" : 1
				}

			}
, 			{
				"box" : 				{
					"maxclass" : "newobj",
					"text" : "qmetro 1",
					"patching_rect" : [ 32.0, 288.0, 66.0, 20.0 ],
					"fontsize" : 12.0,
					"id" : "obj-108",
					"numinlets" : 2,
					"numoutlets" : 1,
					"outlettype" : [ "bang" ],
					"fontname" : "Andale Mono",
					"hidden" : 1
				}

			}
, 			{
				"box" : 				{
					"maxclass" : "newobj",
					"text" : "s from_serial",
					"patching_rect" : [ 128.0, 384.0, 102.0, 20.0 ],
					"fontsize" : 12.0,
					"id" : "obj-109",
					"numinlets" : 1,
					"numoutlets" : 0,
					"fontname" : "Andale Mono"
				}

			}
, 			{
				"box" : 				{
					"maxclass" : "newobj",
					"text" : "r to_serial",
					"patching_rect" : [ 112.0, 288.0, 88.0, 20.0 ],
					"fontsize" : 12.0,
					"id" : "obj-110",
					"numinlets" : 0,
					"numoutlets" : 1,
					"outlettype" : [ "" ],
					"fontname" : "Andale Mono",
					"hidden" : 1
				}

			}
, 			{
				"box" : 				{
					"maxclass" : "newobj",
					"text" : "serial b 115200",
					"patching_rect" : [ 32.0, 320.0, 127.0, 20.0 ],
					"fontsize" : 12.0,
					"id" : "obj-111",
					"numinlets" : 1,
					"numoutlets" : 2,
					"outlettype" : [ "int", "" ],
					"fontname" : "Andale Mono"
				}

			}
 ],
		"lines" : [ 			{
				"patchline" : 				{
					"source" : [ "obj-123", 0 ],
					"destination" : [ "obj-1", 0 ],
					"hidden" : 1,
					"midpoints" : [  ]
				}

			}
, 			{
				"patchline" : 				{
					"source" : [ "obj-145", 0 ],
					"destination" : [ "obj-1", 0 ],
					"hidden" : 1,
					"midpoints" : [  ]
				}

			}
, 			{
				"patchline" : 				{
					"source" : [ "obj-95", 0 ],
					"destination" : [ "obj-1", 0 ],
					"hidden" : 1,
					"midpoints" : [  ]
				}

			}
, 			{
				"patchline" : 				{
					"source" : [ "obj-3", 0 ],
					"destination" : [ "obj-1", 0 ],
					"hidden" : 1,
					"midpoints" : [  ]
				}

			}
, 			{
				"patchline" : 				{
					"source" : [ "obj-6", 0 ],
					"destination" : [ "obj-1", 0 ],
					"hidden" : 1,
					"midpoints" : [  ]
				}

			}
, 			{
				"patchline" : 				{
					"source" : [ "obj-7", 0 ],
					"destination" : [ "obj-4", 0 ],
					"hidden" : 1,
					"midpoints" : [  ]
				}

			}
, 			{
				"patchline" : 				{
					"source" : [ "obj-5", 0 ],
					"destination" : [ "obj-6", 0 ],
					"hidden" : 0,
					"midpoints" : [  ]
				}

			}
, 			{
				"patchline" : 				{
					"source" : [ "obj-2", 0 ],
					"destination" : [ "obj-3", 0 ],
					"hidden" : 0,
					"midpoints" : [  ]
				}

			}
, 			{
				"patchline" : 				{
					"source" : [ "obj-47", 0 ],
					"destination" : [ "obj-4", 0 ],
					"hidden" : 1,
					"midpoints" : [  ]
				}

			}
, 			{
				"patchline" : 				{
					"source" : [ "obj-39", 0 ],
					"destination" : [ "obj-4", 0 ],
					"hidden" : 1,
					"midpoints" : [  ]
				}

			}
, 			{
				"patchline" : 				{
					"source" : [ "obj-37", 0 ],
					"destination" : [ "obj-4", 0 ],
					"hidden" : 1,
					"midpoints" : [  ]
				}

			}
, 			{
				"patchline" : 				{
					"source" : [ "obj-35", 0 ],
					"destination" : [ "obj-4", 0 ],
					"hidden" : 1,
					"midpoints" : [  ]
				}

			}
, 			{
				"patchline" : 				{
					"source" : [ "obj-33", 0 ],
					"destination" : [ "obj-8", 0 ],
					"hidden" : 0,
					"midpoints" : [  ]
				}

			}
, 			{
				"patchline" : 				{
					"source" : [ "obj-29", 0 ],
					"destination" : [ "obj-4", 0 ],
					"hidden" : 1,
					"midpoints" : [  ]
				}

			}
, 			{
				"patchline" : 				{
					"source" : [ "obj-27", 0 ],
					"destination" : [ "obj-29", 0 ],
					"hidden" : 1,
					"midpoints" : [  ]
				}

			}
, 			{
				"patchline" : 				{
					"source" : [ "obj-26", 0 ],
					"destination" : [ "obj-27", 2 ],
					"hidden" : 1,
					"midpoints" : [  ]
				}

			}
, 			{
				"patchline" : 				{
					"source" : [ "obj-22", 1 ],
					"destination" : [ "obj-27", 1 ],
					"hidden" : 1,
					"midpoints" : [  ]
				}

			}
, 			{
				"patchline" : 				{
					"source" : [ "obj-22", 0 ],
					"destination" : [ "obj-27", 0 ],
					"hidden" : 1,
					"midpoints" : [  ]
				}

			}
, 			{
				"patchline" : 				{
					"source" : [ "obj-22", 2 ],
					"destination" : [ "obj-26", 0 ],
					"hidden" : 1,
					"midpoints" : [  ]
				}

			}
, 			{
				"patchline" : 				{
					"source" : [ "obj-8", 0 ],
					"destination" : [ "obj-22", 0 ],
					"hidden" : 1,
					"midpoints" : [  ]
				}

			}
, 			{
				"patchline" : 				{
					"source" : [ "obj-111", 1 ],
					"destination" : [ "obj-109", 0 ],
					"hidden" : 0,
					"midpoints" : [  ]
				}

			}
, 			{
				"patchline" : 				{
					"source" : [ "obj-108", 0 ],
					"destination" : [ "obj-111", 0 ],
					"hidden" : 1,
					"midpoints" : [  ]
				}

			}
, 			{
				"patchline" : 				{
					"source" : [ "obj-110", 0 ],
					"destination" : [ "obj-111", 0 ],
					"hidden" : 1,
					"midpoints" : [  ]
				}

			}
, 			{
				"patchline" : 				{
					"source" : [ "obj-107", 0 ],
					"destination" : [ "obj-108", 0 ],
					"hidden" : 1,
					"midpoints" : [  ]
				}

			}
, 			{
				"patchline" : 				{
					"source" : [ "obj-106", 0 ],
					"destination" : [ "obj-107", 0 ],
					"hidden" : 1,
					"midpoints" : [  ]
				}

			}
, 			{
				"patchline" : 				{
					"source" : [ "obj-105", 0 ],
					"destination" : [ "obj-106", 0 ],
					"hidden" : 1,
					"midpoints" : [  ]
				}

			}
, 			{
				"patchline" : 				{
					"source" : [ "obj-104", 1 ],
					"destination" : [ "obj-103", 0 ],
					"hidden" : 1,
					"midpoints" : [  ]
				}

			}
, 			{
				"patchline" : 				{
					"source" : [ "obj-100", 0 ],
					"destination" : [ "obj-101", 0 ],
					"hidden" : 1,
					"midpoints" : [  ]
				}

			}
, 			{
				"patchline" : 				{
					"source" : [ "obj-99", 0 ],
					"destination" : [ "obj-100", 0 ],
					"hidden" : 1,
					"midpoints" : [  ]
				}

			}
, 			{
				"patchline" : 				{
					"source" : [ "obj-102", 0 ],
					"destination" : [ "obj-104", 0 ],
					"hidden" : 1,
					"midpoints" : [  ]
				}

			}
, 			{
				"patchline" : 				{
					"source" : [ "obj-10", 0 ],
					"destination" : [ "obj-4", 0 ],
					"hidden" : 1,
					"midpoints" : [  ]
				}

			}
, 			{
				"patchline" : 				{
					"source" : [ "obj-18", 0 ],
					"destination" : [ "obj-4", 0 ],
					"hidden" : 1,
					"midpoints" : [  ]
				}

			}
, 			{
				"patchline" : 				{
					"source" : [ "obj-41", 0 ],
					"destination" : [ "obj-59", 0 ],
					"hidden" : 0,
					"midpoints" : [  ]
				}

			}
, 			{
				"patchline" : 				{
					"source" : [ "obj-59", 0 ],
					"destination" : [ "obj-4", 0 ],
					"hidden" : 1,
					"midpoints" : [  ]
				}

			}
, 			{
				"patchline" : 				{
					"source" : [ "obj-111", 0 ],
					"destination" : [ "obj-49", 0 ],
					"hidden" : 0,
					"midpoints" : [  ]
				}

			}
, 			{
				"patchline" : 				{
					"source" : [ "obj-49", 1 ],
					"destination" : [ "obj-52", 0 ],
					"hidden" : 0,
					"midpoints" : [  ]
				}

			}
, 			{
				"patchline" : 				{
					"source" : [ "obj-49", 0 ],
					"destination" : [ "obj-73", 0 ],
					"hidden" : 0,
					"midpoints" : [  ]
				}

			}
, 			{
				"patchline" : 				{
					"source" : [ "obj-73", 0 ],
					"destination" : [ "obj-55", 0 ],
					"hidden" : 0,
					"midpoints" : [  ]
				}

			}
, 			{
				"patchline" : 				{
					"source" : [ "obj-52", 0 ],
					"destination" : [ "obj-55", 0 ],
					"hidden" : 0,
					"midpoints" : [  ]
				}

			}
, 			{
				"patchline" : 				{
					"source" : [ "obj-111", 0 ],
					"destination" : [ "obj-120", 1 ],
					"hidden" : 0,
					"midpoints" : [  ]
				}

			}
 ]
	}

}
